<svg width="45" height="49" viewBox="0 0 45 49" fill="none" xmlns="http://www.w3.org/2000/svg">
<path d="M30.4976 8.05626C30.4976 6.46984 30.0249 4.8996 29.1446 3.57218C28.2642 2.24476 27.0253 1.20872 25.5581 0.593579C24.1072 -0.00537836 22.4933 -0.151071 20.9283 0.156502C19.3796 0.480263 17.945 1.25729 16.8364 2.39045C15.9887 3.23223 15.3529 4.25208 14.9454 5.36905C14.5378 6.48602 14.3911 7.68394 14.5052 8.88185C14.6193 10.0636 14.9943 11.2129 15.6138 12.2328C16.2332 13.2526 17.0484 14.1268 18.0428 14.7905C19.135 15.5189 20.3903 15.9722 21.6945 16.1017C22.9986 16.2312 24.3191 16.037 25.5418 15.5351C26.5199 15.1142 27.4002 14.5153 28.1338 13.7383C29.6499 12.2328 30.4976 10.1769 30.4976 8.05626Z" fill="#5152FB"/>
<path d="M4.91943 20.861L19.1838 45.7258C20.9771 48.9149 24.0093 48.9149 25.8188 45.7258L32.0789 34.7827C23.1616 36.9681 9.97311 29.6673 4.91943 20.861Z" fill="#FDBC42"/>
<path d="M41.8768 8.05624C38.8283 8.05624 35.1114 10.8082 33.6116 14.1753C33.6116 14.1753 30.1393 21.9941 22.4936 21.9941C19.8689 21.9941 17.3258 21.039 15.3369 19.3069C17.8474 22.3665 26.4061 28.9874 39.0566 22.6255L44.0776 13.8839C45.9198 10.6625 44.909 8.05624 41.8768 8.05624Z" fill="#5152FB"/>
<path d="M15.3365 19.2908C13.69 17.8662 12.3369 16.1179 11.3914 14.1591C9.89157 10.792 6.17468 8.04007 3.14247 8.04007C0.0776661 8.05626 -0.916766 10.6625 0.925379 13.8678L4.91941 20.8448C9.97308 29.6511 23.1615 36.9681 32.1114 34.7665L39.0724 22.6255C26.3894 28.9874 17.847 22.3665 15.3365 19.2908Z" fill="#FA4769"/>
</svg>
